<svg xmlns="http://www.w3.org/2000/svg" xmlns:xlink="http://www.w3.org/1999/xlink" viewBox="0 0 246.72 195.12">
  <defs>
    <style>
      .cls-1 {
        fill: white;
        isolation: isolate;
      }

      .cls-2 {
        
        fill-rule: evenodd;
      }
    </style>
  </defs>
  <g id="crown" class="cls-1">
    <path class="cls-2" d="M156,2.16c8.65-.28,10.7.67,12.24,7.2,8.94.08,16.74,3.4,23.28,6,24.75,9.85,40.41,20.76,49.2,46.56,2.64,7.74,3.6,18.13,4.56,26.16l-.48,13.2c1.72,11.23.8,33.88-2.88,43.68a32.43,32.43,0,0,1-7,1.68,55.25,55.25,0,0,1-5.76.24c-3.46.1-5.9.92-9.36,1a31.42,31.42,0,0,1-12.24-2.4,31.84,31.84,0,0,0-4.56-1c-5.55-.76-10.54.39-14.88.24a79.8,79.8,0,0,1-8.16-1.2c-3.3-.59-6.66-1.25-9.6-1.92a220,220,0,0,1-26.16-7.92c-3.93-.93-7.81-1.8-11.76-2.64-10.5-2.24-20.83-4.13-31.44-5.76l-14.88-1.92a130.63,130.63,0,0,1-15.36-1.44,98.82,98.82,0,0,0-10.08-1.2,80.91,80.91,0,0,0-9.6,0c1.17-6.66,2.12-13.21,2.88-19.92.49-4.35.88-8.6,1.2-13,2.57-12.61,5.42-24.57,10.08-35,12.73-28.63,45.23-40.75,85-42.48V9.6A5.72,5.72,0,0,1,150,5.76C151.19,3.22,153.36,3.29,156,2.16Z"/>
  </g>
  <g id="visor" class="cls-1">
    <path class="cls-2" d="M54,120.24l34.32,2.88,13,1.44,28.32,5.52c6.31,1.46,12.38,3,18.48,4.8,7.6,2.2,14.47,4.48,22.08,6.24,7,1.62,15,3.21,19,3.36,9.39.37,17-1.17,17.76,1,.28.82-.57,1.94-1.92,3.12a42.86,42.86,0,0,1-2.88,4.08,51.86,51.86,0,0,1-5.28,5.52c-1.46,1.34-3,2.61-4.56,3.84l-10.32,8.4c-10.15,8.26-17.16,14.74-26.64,18.24A64.78,64.78,0,0,1,126.72,192a81.92,81.92,0,0,1-23.28-6.24c-19.38-8.47-35.61-15.82-51.6-18.48a138.1,138.1,0,0,0-18.24-1.44,55,55,0,0,0-9.12.48,41.73,41.73,0,0,0-9.84,2.4c-4.89,2.42-7.75,6.07-10.32,5A3.78,3.78,0,0,1,2.4,171.6c-.67-2.69,10-11.37,12.24-13.2l25.44-25c3.74-3.74,8.87-7,10.8-12.48Z"/>
  </g>
  <g id="shadow_Image" data-name="shadow Image">
    <image id="shadow_Image-2" data-name="shadow Image" width="1028" height="813" transform="scale(0.24)" xlink:href="resources/hat11.png"/>
  </g>
</svg>
